<svg xmlns="http://www.w3.org/2000/svg" height="40" viewBox="0 -960 960 960" width="40"><path d="M40-256.923v-31.462q0-35.429 38.487-58.907 38.487-23.477 99.456-23.477 8.597 0 19.058.884 10.46.885 21.717 2.653-6.923 15.488-10.513 31.059-3.59 15.57-3.59 31.173v48.077H40Zm240 0v-45q0-24.181 14.038-44.206 14.039-20.025 41.423-34.64 27.385-14.616 63.808-21.924Q435.692-410 479.692-410q44.847 0 81.27 7.307 36.423 7.308 63.807 21.924 27.385 14.615 41.308 34.64Q680-326.104 680-301.923v45H280Zm475.385 0v-47.847q0-17.097-3.218-32.715-3.218-15.618-10.321-29.697 12.539-1.818 22.538-2.703 9.999-.884 18.693-.884 61.051 0 98.987 23.14Q920-324.489 920-288.385v31.462H755.385Zm-441.667-33.846h332.641v-10.41q.77-33.642-44.859-54.308-45.628-20.667-121.5-20.667-75.359 0-121.244 20.667-45.885 20.666-45.038 54.461v10.257ZM177.199-405.384q-22.148 0-37.751-15.789-15.602-15.788-15.602-38.058 0-21.948 15.788-37.512 15.789-15.565 38.058-15.565 21.949 0 37.898 15.565 15.948 15.564 15.948 38.031 0 21.353-15.526 37.34-15.527 15.988-38.813 15.988Zm605.59 0q-21.584 0-37.571-16.029-15.987-16.029-15.987-37.588 0-22.178 16.029-37.742 16.029-15.565 37.966-15.565 22.569 0 38.133 15.565 15.564 15.564 15.564 37.801 0 22.064-15.468 37.811t-38.666 15.747ZM480.271-440q-36.425 0-62.194-25.577-25.77-25.577-25.77-62.116 0-37.269 25.577-62.481 25.577-25.211 62.116-25.211 37.269 0 62.481 25.133 25.212 25.134 25.212 62.288 0 36.425-25.134 62.194Q517.425-440 480.271-440Zm.348-33.846q22.381 0 37.804-15.786 15.423-15.785 15.423-38.679 0-22.382-15.426-37.805-15.426-15.423-38.186-15.423-22.311 0-38.196 15.426-15.884 15.427-15.884 38.186 0 22.311 15.785 38.196 15.785 15.885 38.68 15.885Zm-.542 183.077ZM480-527.693Z"/></svg>