<svg xmlns="http://www.w3.org/2000/svg" height="40" viewBox="0 -960 960 960" width="40"><path d="M231.333-100.001q-38.781 0-65.8-27.019t-27.019-65.619v-102.488h123.385v-557.179l55.302 47.692 56.072-47.692 56.071 47.692 56.072-47.692 56.071 47.692 56.154-47.692 56.153 47.692 56.154-47.692 56.153 47.692 55.385-47.692v659.486q0 38.781-27.019 65.8t-65.8 27.019H231.333Zm497.462-50.255q18.359 0 30.397-12.039 12.039-12.038 12.039-30.525v-576.924H312.154v474.617h374.205v102.307q0 18.487 12.038 30.525 12.039 12.039 30.398 12.039ZM366.206-620.821v-50.255h226.922v50.255H366.206Zm0 127.025v-50.255h226.922v50.255H366.206Zm316.358-121.64q-12.384 0-21.449-9.064-9.063-9.064-9.063-21.449 0-12.384 9.063-21.448 9.065-9.064 21.449-9.064 12.384 0 21.448 9.064t9.064 21.448q0 12.385-9.064 21.449-9.064 9.064-21.448 9.064Zm0 124.461q-12.384 0-21.449-9.064-9.063-9.064-9.063-21.448 0-12.385 9.063-21.449Q670.18-552 682.564-552q12.384 0 21.448 9.064t9.064 21.449q0 12.384-9.064 21.448t-21.448 9.064ZM230.74-150.256h405.364v-94.616H188.769v52.052q0 18.487 12.139 30.525 12.138 12.039 29.832 12.039Zm-41.971 0v-94.616 94.616Z"/></svg>